<svg xmlns="http://www.w3.org/2000/svg" width="24" height="24" viewBox="0 0 24 24" role="img" aria-label="Klavermail">
  <g fill="#C6FF00">
    <path d="M12 12C12 5.4 14.9 2.8 17.6 4.2C20.3 5.6 19.3 9.9 12 12Z"/>
    <path d="M12 12C12 5.4 14.9 2.8 17.6 4.2C20.3 5.6 19.3 9.9 12 12Z" transform="rotate(90 12 12)"/>
    <path d="M12 12C12 5.4 14.9 2.8 17.6 4.2C20.3 5.6 19.3 9.9 12 12Z" transform="rotate(180 12 12)"/>
    <path d="M12 12C12 5.4 14.9 2.8 17.6 4.2C20.3 5.6 19.3 9.9 12 12Z" transform="rotate(270 12 12)"/>
  </g>
</svg>
